<?xml version="1.0" encoding="UTF-8" standalone="no"?>
<!-- Uploaded to: SVG Repo, www.svgrepo.com, Generator: SVG Repo Mixer Tools -->

<svg
   width="50px"
   height="50px"
   viewBox="0 0 24 24"
   fill="none"
   version="1.1"
   id="svg56"
   sodipodi:docname="burger-menu.svg"
   inkscape:version="1.2.2 (b0a8486541, 2022-12-01)"
   xmlns:inkscape="http://www.inkscape.org/namespaces/inkscape"
   xmlns:sodipodi="http://sodipodi.sourceforge.net/DTD/sodipodi-0.dtd"
   xmlns="http://www.w3.org/2000/svg"
   xmlns:svg="http://www.w3.org/2000/svg">
  <sodipodi:namedview
     id="namedview58"
     pagecolor="#ffffff"
     bordercolor="#000000"
     borderopacity="0.25"
     inkscape:showpageshadow="2"
     inkscape:pageopacity="0.0"
     inkscape:pagecheckerboard="0"
     inkscape:deskcolor="#d1d1d1"
     showgrid="false"
     inkscape:zoom="3.648671"
     inkscape:cx="38.644208"
     inkscape:cy="13.429547"
     inkscape:window-width="1360"
     inkscape:window-height="704"
     inkscape:window-x="0"
     inkscape:window-y="0"
     inkscape:window-maximized="1"
     inkscape:current-layer="svg56" />
  <g
     clip-path="url(#clip0_429_11066)"
     id="g49">
    <path
       d="M3 6.00092H21M3 12.0009H21M3 18.0009H21"
       stroke="#292929"
       stroke-width="2.5"
       stroke-linecap="round"
       stroke-linejoin="round"
       id="path47" />
  </g>
  <defs
     id="defs54">
    <clipPath
       id="clip0_429_11066">
      <rect
         width="24"
         height="24"
         fill="white"
         transform="translate(0 0.000915527)"
         id="rect51" />
    </clipPath>
  </defs>
  <path
     style="fill:#4d1230;fill-opacity:1;stroke-width:1.55039"
     d="M 87.549425,238.70396 C 58.018611,229.60059 50.059344,189.53901 73.752329,169.2587 86.721499,158.15757 62.840937,158.91473 400,158.91473 c 337.15907,0 313.2785,-0.75716 326.24767,10.34397 23.98352,20.529 15.65985,60.59549 -14.44584,69.53592 -11.27033,3.34693 -613.384735,3.25949 -624.252405,-0.0907 z"
     id="path682"
     transform="scale(0.03)" />
  <path
     style="fill:#250657;fill-opacity:1;stroke-width:1.55039"
     d="m 172.86822,239.58652 c -72.981456,-0.73865 -85.245009,-1.19408 -89.991519,-3.34197 -7.210084,-3.26272 -17.518417,-15.10779 -19.813108,-22.76679 -2.531803,-8.4504 -2.277473,-22.08957 0.537535,-28.82683 3.224048,-7.71624 12.772298,-17.96947 19.344608,-20.7729 8.204537,-3.49966 91.887564,-4.75458 317.054264,-4.75458 225.1667,0 308.84972,1.25492 317.05426,4.75458 6.42017,2.73853 16.46683,13.40712 19.5305,20.73952 2.85882,6.84214 2.77806,23.6378 -0.14729,30.63927 -3.22149,7.71012 -10.92578,16.08202 -18.46116,20.06089 -6.23099,3.29012 -8.05357,3.37142 -98.5964,4.39812 -105.2929,1.19395 -321.96855,1.1312 -446.51163,-0.1293 z"
     id="path753"
     transform="scale(0.03)" />
  <path
     style="fill:#250657;fill-opacity:1;stroke-width:1.55039"
     d="m 124.8062,238.0598 c -26.094295,-0.5847 -40.634507,-1.51105 -42.769378,-2.72484 -4.362053,-2.48006 -13.85903,-13.13558 -16.832836,-18.88628 -3.309076,-6.39905 -3.256934,-26.55561 0.08586,-33.19234 3.225976,-6.40479 11.037597,-14.67976 16.61401,-17.59949 7.923342,-4.14853 65.988574,-5.07491 318.096144,-5.07491 252.69332,0 310.11933,0.9216 318.21265,5.10682 5.50115,2.84476 15.49786,13.68267 17.51546,18.98934 0.81465,2.14272 1.48119,9.11764 1.48119,15.49982 0,12.86817 -2.03586,18.37882 -9.86349,26.69854 -9.40426,9.99546 -9.95707,10.10381 -57.57837,11.28504 -51.09011,1.26727 -487.49984,1.18583 -544.96124,-0.10171 z"
     id="path824"
     transform="scale(0.03)" />
  <path
     style="fill:#4d1230;fill-opacity:1;stroke-width:1.55039"
     d="M 87.549425,438.70396 C 58.018611,429.60059 50.059344,389.53901 73.752329,369.2587 86.721499,358.15757 62.840937,358.91473 400,358.91473 c 337.15907,0 313.2785,-0.75716 326.24767,10.34397 23.98352,20.529 15.65985,60.59549 -14.44584,69.53592 -11.27033,3.34693 -613.384735,3.25949 -624.252405,-0.0907 z"
     id="path826"
     transform="scale(0.03)" />
  <path
     style="fill:#4f1319;fill-opacity:1;stroke-width:1.55039"
     d="M 87.549425,638.70396 C 58.018611,629.60059 50.059344,589.53901 73.752329,569.2587 86.721499,558.15757 62.840937,558.91473 400,558.91473 c 337.15907,0 313.2785,-0.75716 326.24767,10.34397 23.98352,20.529 15.65985,60.59549 -14.44584,69.53592 -11.27033,3.34693 -613.384735,3.25949 -624.252405,-0.0907 z"
     id="path828"
     transform="scale(0.03)" />
  <path
     id="path899"
     style="fill:#281845;fill-opacity:1;stroke-width:1.55039"
     d="M 419.70508 160.85156 C 265.7124 161.09907 98.58968 162.05072 90.916016 163.26172 C 82.645921 164.56684 80.062279 165.7796 74.892578 170.78125 C 65.42107 179.9449 62.791016 186.29603 62.791016 200 C 62.791016 214.12554 65.545026 220.45883 75.802734 229.91406 C 79.692747 233.49976 83.066597 236.52688 83.298828 236.64062 C 83.531059 236.75441 100.11562 237.32333 120.1543 237.9043 C 169.62833 239.33868 624.29342 239.55376 673.64258 238.16602 C 716.95987 236.94787 718.09522 236.70897 727.3457 226.87695 C 735.17333 218.55727 737.20898 213.04586 737.20898 200.17773 C 737.20898 186.26111 736.01793 182.74151 728.48047 174.39844 C 718.75825 163.63709 717.90908 163.44166 673.99805 161.76172 C 661.03201 161.26567 618.95871 160.97591 562.92969 160.85547 C 520.90791 160.76513 471.03597 160.76906 419.70508 160.85156 z "
     transform="scale(0.03)" />
  <path
     style="fill:#fed1aa;stroke-width:0.274072"
     d="M 7.7547464,14.732771 C 5.2677539,14.649136 5.0582957,14.596985 4.5343958,13.930954 3.772715,12.962634 3.8173086,11.779902 4.6467729,10.950438 L 5.3194961,10.277715 H 25.017392 44.715287 l 0.595921,0.634327 c 0.691814,0.736402 0.797543,2.274038 0.211477,3.075531 -0.30194,0.412928 -0.875404,0.566534 -2.672206,0.715771 -2.227959,0.185047 -29.781175,0.20815 -35.0957326,0.02943 z"
     id="path222"
     transform="scale(0.48)" />
  <path
     style="fill:#fed1aa;stroke-width:0.274072"
     d="M 7.6793521,27.352693 C 5.6339757,27.264877 5.1129133,27.148271 4.5960377,26.662692 3.8060509,25.920538 3.757662,24.309328 4.4979014,23.395035 l 0.5238516,-0.647026 19.773275,-0.07383 19.773274,-0.07383 0.80645,0.806448 c 0.443545,0.443547 0.806447,1.068725 0.806447,1.389286 0,0.808198 -0.70338,2.089481 -1.291706,2.352983 -0.496033,0.222165 -32.676604,0.39827 -37.2101409,0.20363 z"
     id="path224"
     transform="scale(0.48)" />
  <path
     style="fill:#fed1aa;stroke-width:0.274072"
     d="M 4.6467729,39.204811 C 3.7009262,38.258964 3.7169525,36.651688 4.6812639,35.745704 L 5.388478,35.081267 h 19.231553 c 10.577355,0 19.568475,0.09429 19.980266,0.209525 0.792818,0.221867 1.580902,1.419088 1.580902,2.401635 0,0.32056 -0.36051,0.943348 -0.801136,1.383972 L 44.57893,39.877534 H 24.949213 5.3194961 Z"
     id="path226"
     transform="scale(0.48)" />
</svg>
