<?xml version="1.0" encoding="UTF-8" standalone="no"?>
<!-- Uploaded to: SVG Repo, www.svgrepo.com, Generator: SVG Repo Mixer Tools -->

<svg
   fill="#000000"
   height="35px"
   width="25px"
   version="1.1"
   id="Capa_1"
   viewBox="0 0 460.775 460.775"
   xml:space="preserve"
   sodipodi:docname="x-symbol.svg"
   inkscape:version="1.2.2 (b0a8486541, 2022-12-01)"
   xmlns:inkscape="http://www.inkscape.org/namespaces/inkscape"
   xmlns:sodipodi="http://sodipodi.sourceforge.net/DTD/sodipodi-0.dtd"
   xmlns="http://www.w3.org/2000/svg"
   xmlns:svg="http://www.w3.org/2000/svg"><defs
   id="defs59" /><sodipodi:namedview
   id="namedview57"
   pagecolor="#ffffff"
   bordercolor="#000000"
   borderopacity="0.25"
   inkscape:showpageshadow="2"
   inkscape:pageopacity="0.0"
   inkscape:pagecheckerboard="0"
   inkscape:deskcolor="#d1d1d1"
   showgrid="false"
   inkscape:zoom="10.32"
   inkscape:cx="25"
   inkscape:cy="25"
   inkscape:window-width="1360"
   inkscape:window-height="704"
   inkscape:window-x="0"
   inkscape:window-y="0"
   inkscape:window-maximized="1"
   inkscape:current-layer="Capa_1" />
<path
   d="M285.08,230.397L456.218,59.27c6.076-6.077,6.076-15.911,0-21.986L423.511,4.565c-2.913-2.911-6.866-4.55-10.992-4.55  c-4.127,0-8.08,1.639-10.993,4.55l-171.138,171.14L59.25,4.565c-2.913-2.911-6.866-4.55-10.993-4.55  c-4.126,0-8.08,1.639-10.992,4.55L4.558,37.284c-6.077,6.075-6.077,15.909,0,21.986l171.138,171.128L4.575,401.505  c-6.074,6.077-6.074,15.911,0,21.986l32.709,32.719c2.911,2.911,6.865,4.55,10.992,4.55c4.127,0,8.08-1.639,10.994-4.55  l171.117-171.12l171.118,171.12c2.913,2.911,6.866,4.55,10.993,4.55c4.128,0,8.081-1.639,10.992-4.55l32.709-32.719  c6.074-6.075,6.074-15.909,0-21.986L285.08,230.397z"
   id="path54" />
<path
   style="fill:#fed1aa;stroke-width:0.0968992"
   d="M 4.551624,49.758229 C 4.0174515,49.493811 0.39593264,45.847558 0.1987443,45.37562 0.00934196,44.922317 0.00893359,44.614719 0.19712874,44.158709 0.30207827,43.90441 3.1093347,41.033889 9.7417035,34.399038 L 19.1376,24.999626 9.7770145,15.649038 C 3.3445027,9.2233966 0.35954065,6.1772059 0.23456715,5.9108527 -0.21135139,4.9604767 -0.0331746,4.645781 2.2564955,2.3397236 4.5876801,-0.00814528 4.949427,-0.21653594 5.9108527,0.23456715 6.1772059,0.35954065 9.2233966,3.3445027 15.649038,9.7770145 L 24.999626,19.1376 34.399038,9.7417035 c 6.634851,-6.6323688 9.505372,-9.43962523 9.759671,-9.54457476 0.931953,-0.38461635 1.285139,-0.17352061 3.584796,2.14259486 2.259171,2.275341 2.439141,2.5813459 2.059366,3.501567 -0.104949,0.2542999 -2.912205,3.1248206 -9.544574,9.7596714 l -9.395897,9.399412 9.360585,9.350588 c 6.432512,6.425642 9.417474,9.471833 9.542448,9.738185 0.447143,0.952986 0.240083,1.31101 -2.112824,3.653235 -2.300116,2.289674 -2.614644,2.468238 -3.563462,2.023051 -0.266352,-0.124974 -3.312543,-3.109936 -9.738185,-9.542448 L 25.000374,30.8624 15.600962,40.258297 C 8.9661112,46.890666 6.0955905,49.697922 5.8412906,49.802871 5.3592423,50.001812 5.0199835,49.990069 4.551624,49.758229 Z"
   id="path303"
   transform="scale(9.2155)" /></svg>
